<mxfile host="app.diagrams.net" modified="2024-01-12T05:40:07.633Z" agent="Mozilla/5.0 (Windows NT 10.0; Win64; x64) AppleWebKit/537.36 (KHTML, like Gecko) Chrome/120.0.0.0 Safari/537.36" version="22.1.18" etag="UqdXW8mfl9vg7zOFMFOf" type="device">
  <diagram id="FjInywHtOZO8TJzfOWAd" name="페이지-1">
    <mxGraphModel dx="2620" dy="923" grid="1" gridSize="10" guides="1" tooltips="1" connect="1" arrows="1" fold="1" page="1" pageScale="1" pageWidth="827" pageHeight="1169" math="0" shadow="0">
      <root>
        <mxCell id="0" />
        <mxCell id="1" parent="0" />
        <mxCell id="SmEhpmtR_BmiohEI3UOH-7" style="rounded=0;orthogonalLoop=1;jettySize=auto;html=1;entryX=0.5;entryY=0;entryDx=0;entryDy=0;" edge="1" parent="1" source="SmEhpmtR_BmiohEI3UOH-1" target="SmEhpmtR_BmiohEI3UOH-2">
          <mxGeometry relative="1" as="geometry">
            <mxPoint x="-638" y="620" as="targetPoint" />
          </mxGeometry>
        </mxCell>
        <mxCell id="SmEhpmtR_BmiohEI3UOH-8" style="rounded=0;orthogonalLoop=1;jettySize=auto;html=1;entryX=0.5;entryY=0;entryDx=0;entryDy=0;" edge="1" parent="1" source="SmEhpmtR_BmiohEI3UOH-1" target="SmEhpmtR_BmiohEI3UOH-3">
          <mxGeometry relative="1" as="geometry" />
        </mxCell>
        <mxCell id="SmEhpmtR_BmiohEI3UOH-10" style="rounded=0;orthogonalLoop=1;jettySize=auto;html=1;" edge="1" parent="1" source="SmEhpmtR_BmiohEI3UOH-1" target="SmEhpmtR_BmiohEI3UOH-5">
          <mxGeometry relative="1" as="geometry" />
        </mxCell>
        <mxCell id="SmEhpmtR_BmiohEI3UOH-11" style="rounded=0;orthogonalLoop=1;jettySize=auto;html=1;entryX=0.5;entryY=0;entryDx=0;entryDy=0;" edge="1" parent="1" source="SmEhpmtR_BmiohEI3UOH-1" target="SmEhpmtR_BmiohEI3UOH-6">
          <mxGeometry relative="1" as="geometry" />
        </mxCell>
        <mxCell id="SmEhpmtR_BmiohEI3UOH-12" style="edgeStyle=orthogonalEdgeStyle;rounded=0;orthogonalLoop=1;jettySize=auto;html=1;entryX=0.5;entryY=0;entryDx=0;entryDy=0;" edge="1" parent="1" source="SmEhpmtR_BmiohEI3UOH-1" target="SmEhpmtR_BmiohEI3UOH-4">
          <mxGeometry relative="1" as="geometry" />
        </mxCell>
        <mxCell id="SmEhpmtR_BmiohEI3UOH-1" value="학생" style="rounded=1;arcSize=10;whiteSpace=wrap;html=1;align=center;" vertex="1" parent="1">
          <mxGeometry x="-445" y="430" width="110" height="50" as="geometry" />
        </mxCell>
        <mxCell id="SmEhpmtR_BmiohEI3UOH-2" value="학번" style="ellipse;whiteSpace=wrap;html=1;align=center;fontStyle=4;" vertex="1" parent="1">
          <mxGeometry x="-690" y="625" width="100" height="40" as="geometry" />
        </mxCell>
        <mxCell id="SmEhpmtR_BmiohEI3UOH-3" value="이름" style="ellipse;whiteSpace=wrap;html=1;align=center;" vertex="1" parent="1">
          <mxGeometry x="-565" y="625" width="100" height="40" as="geometry" />
        </mxCell>
        <mxCell id="SmEhpmtR_BmiohEI3UOH-4" value="학과" style="ellipse;whiteSpace=wrap;html=1;align=center;" vertex="1" parent="1">
          <mxGeometry x="-440" y="625" width="100" height="40" as="geometry" />
        </mxCell>
        <mxCell id="SmEhpmtR_BmiohEI3UOH-5" value="학년" style="ellipse;whiteSpace=wrap;html=1;align=center;" vertex="1" parent="1">
          <mxGeometry x="-318" y="625" width="100" height="40" as="geometry" />
        </mxCell>
        <mxCell id="SmEhpmtR_BmiohEI3UOH-6" value="전화번호" style="ellipse;whiteSpace=wrap;html=1;align=center;" vertex="1" parent="1">
          <mxGeometry x="-200" y="625" width="100" height="40" as="geometry" />
        </mxCell>
        <mxCell id="SmEhpmtR_BmiohEI3UOH-24" style="rounded=0;orthogonalLoop=1;jettySize=auto;html=1;entryX=0.5;entryY=0;entryDx=0;entryDy=0;" edge="1" source="SmEhpmtR_BmiohEI3UOH-29" target="SmEhpmtR_BmiohEI3UOH-30" parent="1">
          <mxGeometry relative="1" as="geometry">
            <mxPoint x="52" y="620" as="targetPoint" />
          </mxGeometry>
        </mxCell>
        <mxCell id="SmEhpmtR_BmiohEI3UOH-25" style="rounded=0;orthogonalLoop=1;jettySize=auto;html=1;entryX=0.5;entryY=0;entryDx=0;entryDy=0;" edge="1" source="SmEhpmtR_BmiohEI3UOH-29" target="SmEhpmtR_BmiohEI3UOH-31" parent="1">
          <mxGeometry relative="1" as="geometry" />
        </mxCell>
        <mxCell id="SmEhpmtR_BmiohEI3UOH-26" style="rounded=0;orthogonalLoop=1;jettySize=auto;html=1;" edge="1" source="SmEhpmtR_BmiohEI3UOH-29" target="SmEhpmtR_BmiohEI3UOH-33" parent="1">
          <mxGeometry relative="1" as="geometry" />
        </mxCell>
        <mxCell id="SmEhpmtR_BmiohEI3UOH-28" style="rounded=0;orthogonalLoop=1;jettySize=auto;html=1;entryX=0.5;entryY=0;entryDx=0;entryDy=0;" edge="1" source="SmEhpmtR_BmiohEI3UOH-29" target="SmEhpmtR_BmiohEI3UOH-32" parent="1">
          <mxGeometry relative="1" as="geometry" />
        </mxCell>
        <mxCell id="SmEhpmtR_BmiohEI3UOH-29" value="과목" style="rounded=1;arcSize=10;whiteSpace=wrap;html=1;align=center;" vertex="1" parent="1">
          <mxGeometry x="250" y="430" width="110" height="50" as="geometry" />
        </mxCell>
        <mxCell id="SmEhpmtR_BmiohEI3UOH-30" value="과목번호" style="ellipse;whiteSpace=wrap;html=1;align=center;fontStyle=4;" vertex="1" parent="1">
          <mxGeometry x="80" y="625" width="100" height="40" as="geometry" />
        </mxCell>
        <mxCell id="SmEhpmtR_BmiohEI3UOH-31" value="과목명" style="ellipse;whiteSpace=wrap;html=1;align=center;" vertex="1" parent="1">
          <mxGeometry x="205" y="625" width="100" height="40" as="geometry" />
        </mxCell>
        <mxCell id="SmEhpmtR_BmiohEI3UOH-32" value="담당교수" style="ellipse;whiteSpace=wrap;html=1;align=center;" vertex="1" parent="1">
          <mxGeometry x="330" y="625" width="100" height="40" as="geometry" />
        </mxCell>
        <mxCell id="SmEhpmtR_BmiohEI3UOH-33" value="강의실" style="ellipse;whiteSpace=wrap;html=1;align=center;" vertex="1" parent="1">
          <mxGeometry x="452" y="625" width="100" height="40" as="geometry" />
        </mxCell>
        <mxCell id="SmEhpmtR_BmiohEI3UOH-36" style="edgeStyle=orthogonalEdgeStyle;rounded=0;orthogonalLoop=1;jettySize=auto;html=1;entryX=0.5;entryY=0;entryDx=0;entryDy=0;" edge="1" parent="1" source="SmEhpmtR_BmiohEI3UOH-35" target="SmEhpmtR_BmiohEI3UOH-1">
          <mxGeometry relative="1" as="geometry" />
        </mxCell>
        <mxCell id="SmEhpmtR_BmiohEI3UOH-37" style="edgeStyle=orthogonalEdgeStyle;rounded=0;orthogonalLoop=1;jettySize=auto;html=1;entryX=0.5;entryY=0;entryDx=0;entryDy=0;" edge="1" parent="1" source="SmEhpmtR_BmiohEI3UOH-35" target="SmEhpmtR_BmiohEI3UOH-29">
          <mxGeometry relative="1" as="geometry" />
        </mxCell>
        <mxCell id="SmEhpmtR_BmiohEI3UOH-35" value="수강신청" style="shape=rhombus;perimeter=rhombusPerimeter;whiteSpace=wrap;html=1;align=center;" vertex="1" parent="1">
          <mxGeometry x="-100" y="220" width="150" height="80" as="geometry" />
        </mxCell>
      </root>
    </mxGraphModel>
  </diagram>
</mxfile>
